<svg width="38" height="53" viewBox="0 0 38 53" fill="none" xmlns="http://www.w3.org/2000/svg">
<path d="M33.848 24.2634C26.398 30.3589 15.9002 19.5224 3.03187 22.9088L5.74098 48.984L6.41826 50.6772L7.77282 51.3545C14.7714 51.1287 28.9039 51.0836 29.4457 51.3545C29.9876 51.3545 31.1167 51.6931 31.9069 50.6772L33.848 24.2634Z" fill="#A1C3F6"/>
<path d="M36.115 2.38091L31.5632 50.5321C31.5146 51.0456 31.0834 51.438 30.5676 51.438H6.65088C6.13505 51.438 5.70386 51.0456 5.65531 50.5321L1.10343 2.38091C1.04795 1.79407 1.50953 1.2868 2.09899 1.2868H18.6092H35.1195C35.709 1.2868 36.1705 1.79407 36.115 2.38091Z" stroke="black" stroke-width="2"/>
</svg>
