<svg width="24" height="34" viewBox="0 0 24 34" fill="none" xmlns="http://www.w3.org/2000/svg">
<path d="M21.5519 15.8525C16.9468 19.6203 10.4578 12.9219 2.50356 15.0152L4.17813 31.133L4.59678 32.1796L5.43407 32.5982C9.76006 32.4587 18.4958 32.4308 18.8307 32.5982C19.1656 32.5982 19.8636 32.8075 20.352 32.1796L21.5519 15.8525Z" fill="#4B9EEB"/>
<path d="M22.9137 2.74323L20.1722 31.743C20.1237 32.2566 19.6925 32.6489 19.1767 32.6489H5.08802C4.5722 32.6489 4.14101 32.2566 4.09246 31.743L1.35102 2.74323C1.29554 2.15638 1.75712 1.64911 2.34658 1.64911H12.1323L21.9181 1.64911C22.5076 1.64911 22.9691 2.15638 22.9137 2.74323Z" fill="#4B9EEB" stroke="#A1C3F6" stroke-width="2"/>
</svg>
