<svg width="16" height="23" viewBox="0 0 16 23" fill="none" xmlns="http://www.w3.org/2000/svg">
<path d="M14.4577 10.7003C11.3168 13.2701 6.89109 8.70162 1.46599 10.1293L2.60811 21.1222L2.89365 21.8361L3.46471 22.1216C6.4152 22.0264 12.3733 22.0074 12.6017 22.1216C12.8301 22.1216 13.3062 22.2644 13.6393 21.8361L14.4577 10.7003Z" fill="black"/>
<path d="M15.3537 2.10852L13.544 21.2516C13.4955 21.7651 13.0643 22.1575 12.5485 22.1575H3.51811C3.00229 22.1575 2.5711 21.7651 2.52255 21.2516L0.712897 2.10852C0.65742 1.52167 1.119 1.0144 1.70846 1.0144H8.03329H14.3581C14.9476 1.0144 15.4092 1.52167 15.3537 2.10852Z" stroke="black"/>
</svg>
