<svg width="269" height="116" viewBox="0 0 269 116" fill="none" xmlns="http://www.w3.org/2000/svg">
<mask id="mask0_21_41" style="mask-type:alpha" maskUnits="userSpaceOnUse" x="5" y="21" width="260" height="92">
<path d="M64.6364 45H56.1818C55.6818 42.5682 54.8068 40.4318 53.5568 38.5909C52.3295 36.75 50.8295 35.2045 49.0568 33.9545C47.3068 32.6818 45.3636 31.7273 43.2273 31.0909C41.0909 30.4545 38.8636 30.1364 36.5455 30.1364C32.3182 30.1364 28.4886 31.2045 25.0568 33.3409C21.6477 35.4773 18.9318 38.625 16.9091 42.7841C14.9091 46.9432 13.9091 52.0455 13.9091 58.0909C13.9091 64.1364 14.9091 69.2386 16.9091 73.3977C18.9318 77.5568 21.6477 80.7045 25.0568 82.8409C28.4886 84.9773 32.3182 86.0455 36.5455 86.0455C38.8636 86.0455 41.0909 85.7273 43.2273 85.0909C45.3636 84.4545 47.3068 83.5114 49.0568 82.2614C50.8295 80.9886 52.3295 79.4318 53.5568 77.5909C54.8068 75.7273 55.6818 73.5909 56.1818 71.1818H64.6364C64 74.75 62.8409 77.9432 61.1591 80.7614C59.4773 83.5795 57.3864 85.9773 54.8864 87.9545C52.3864 89.9091 49.5795 91.3977 46.4659 92.4205C43.375 93.4432 40.0682 93.9545 36.5455 93.9545C30.5909 93.9545 25.2955 92.5 20.6591 89.5909C16.0227 86.6818 12.375 82.5455 9.71591 77.1818C7.05682 71.8182 5.72727 65.4545 5.72727 58.0909C5.72727 50.7273 7.05682 44.3636 9.71591 39C12.375 33.6364 16.0227 29.5 20.6591 26.5909C25.2955 23.6818 30.5909 22.2273 36.5455 22.2273C40.0682 22.2273 43.375 22.7386 46.4659 23.7614C49.5795 24.7841 52.3864 26.2841 54.8864 28.2614C57.3864 30.2159 59.4773 32.6023 61.1591 35.4205C62.8409 38.2159 64 41.4091 64.6364 45ZM88.8801 94.0909C84.1528 94.0909 80.0051 92.9659 76.4369 90.7159C72.8915 88.4659 70.1188 85.3182 68.1188 81.2727C66.1415 77.2273 65.1528 72.5 65.1528 67.0909C65.1528 61.6364 66.1415 56.875 68.1188 52.8068C70.1188 48.7386 72.8915 45.5795 76.4369 43.3295C80.0051 41.0795 84.1528 39.9545 88.8801 39.9545C93.6074 39.9545 97.7438 41.0795 101.289 43.3295C104.857 45.5795 107.63 48.7386 109.607 52.8068C111.607 56.875 112.607 61.6364 112.607 67.0909C112.607 72.5 111.607 77.2273 109.607 81.2727C107.63 85.3182 104.857 88.4659 101.289 90.7159C97.7438 92.9659 93.6074 94.0909 88.8801 94.0909ZM88.8801 86.8636C92.471 86.8636 95.4256 85.9432 97.7438 84.1023C100.062 82.2614 101.778 79.8409 102.891 76.8409C104.005 73.8409 104.562 70.5909 104.562 67.0909C104.562 63.5909 104.005 60.3295 102.891 57.3068C101.778 54.2841 100.062 51.8409 97.7438 49.9773C95.4256 48.1136 92.471 47.1818 88.8801 47.1818C85.2892 47.1818 82.3347 48.1136 80.0165 49.9773C77.6983 51.8409 75.9824 54.2841 74.8688 57.3068C73.7551 60.3295 73.1983 63.5909 73.1983 67.0909C73.1983 70.5909 73.7551 73.8409 74.8688 76.8409C75.9824 79.8409 77.6983 82.2614 80.0165 84.1023C82.3347 85.9432 85.2892 86.8636 88.8801 86.8636ZM115.289 112.636V40.6364H123.061V48.9545H124.016C124.607 48.0455 125.425 46.8864 126.47 45.4773C127.539 44.0455 129.061 42.7727 131.039 41.6591C133.039 40.5227 135.743 39.9545 139.152 39.9545C143.561 39.9545 147.448 41.0568 150.811 43.2614C154.175 45.4659 156.8 48.5909 158.686 52.6364C160.573 56.6818 161.516 61.4545 161.516 66.9545C161.516 72.5 160.573 77.3068 158.686 81.375C156.8 85.4205 154.186 88.5568 150.845 90.7841C147.505 92.9886 143.652 94.0909 139.289 94.0909C135.925 94.0909 133.232 93.5341 131.209 92.4205C129.186 91.2841 127.63 90 126.539 88.5682C125.448 87.1136 124.607 85.9091 124.016 84.9545H123.334V112.636H115.289ZM123.198 66.8182C123.198 70.7727 123.777 74.2614 124.936 77.2841C126.095 80.2841 127.789 82.6364 130.016 84.3409C132.243 86.0227 134.97 86.8636 138.198 86.8636C141.561 86.8636 144.368 85.9773 146.618 84.2045C148.891 82.4091 150.595 80 151.732 76.9773C152.891 73.9318 153.47 70.5455 153.47 66.8182C153.47 63.1364 152.902 59.8182 151.766 56.8636C150.652 53.8864 148.959 51.5341 146.686 49.8068C144.436 48.0568 141.607 47.1818 138.198 47.1818C134.925 47.1818 132.175 48.0114 129.948 49.6705C127.72 51.3068 126.039 53.6023 124.902 56.5568C123.766 59.4886 123.198 62.9091 123.198 66.8182ZM164.189 93V40.6364H172.234V93H164.189ZM168.28 31.9091C166.711 31.9091 165.359 31.375 164.223 30.3068C163.109 29.2386 162.552 27.9545 162.552 26.4545C162.552 24.9545 163.109 23.6705 164.223 22.6023C165.359 21.5341 166.711 21 168.28 21C169.848 21 171.189 21.5341 172.302 22.6023C173.439 23.6705 174.007 24.9545 174.007 26.4545C174.007 27.9545 173.439 29.2386 172.302 30.3068C171.189 31.375 169.848 31.9091 168.28 31.9091ZM185.415 61.5V93H177.37V40.6364H185.143V48.8182H185.824C187.052 46.1591 188.915 44.0227 191.415 42.4091C193.915 40.7727 197.143 39.9545 201.097 39.9545C204.643 39.9545 207.745 40.6818 210.404 42.1364C213.063 43.5682 215.131 45.75 216.609 48.6818C218.086 51.5909 218.824 55.2727 218.824 59.7273V93H210.779V60.2727C210.779 56.1591 209.711 52.9545 207.574 50.6591C205.438 48.3409 202.506 47.1818 198.779 47.1818C196.211 47.1818 193.915 47.7386 191.893 48.8523C189.893 49.9659 188.313 51.5909 187.154 53.7273C185.995 55.8636 185.415 58.4545 185.415 61.5ZM229.926 40.6364L242.472 62.0455L255.017 40.6364H264.29L247.381 66.8182L264.29 93H255.017L242.472 72.6818L229.926 93H220.653L237.29 66.8182L220.653 40.6364H229.926Z" fill="white"/>
</mask>
<g mask="url(#mask0_21_41)">
<rect x="-31" y="14" width="316" height="106" fill="white"/>
<path d="M145.5 78.5C111.5 69.5 48 58 -16 72L-10.5 110.5L133 120.5L274.5 110.5V53.5C242.833 64.8333 172.7 85.7 145.5 78.5Z" fill="#4B9EEB"/>
</g>
</svg>
